<svg aria-hidden="true" style="position: absolute; width: 0; height: 0; overflow: hidden;" version="1.1" xmlns="http://www.w3.org/2000/svg" xmlns:xlink="http://www.w3.org/1999/xlink">
<defs>
<symbol id="icon-shield" viewBox="0 0 27 32">
<path d="M13.5 0c-8.937 0-13.208 5.047-13.386 5.262-0.073 0.090-0.114 0.202-0.114 0.319v10.054c0 8.504 7.826 13.553 11.19 15.329 0.244 0.129 0.546 0.035 0.676-0.209 0.129-0.244 0.035-0.547-0.209-0.676-3.98-2.101-10.657-6.771-10.657-14.445v-9.863c0.702-0.755 4.632-4.597 12-4.765v30.494c0 0.276 0.224 0.5 0.5 0.5 0.149 0 0.283-0.065 0.375-0.169 1.637-0.704 13.125-6.015 13.125-16.331v-10c0-0.117-0.041-0.23-0.115-0.319-0.148-0.179-3.714-4.375-11.141-5.124-0.275-0.019-0.521 0.173-0.548 0.447-0.028 0.275 0.173 0.52 0.447 0.548 6.287 0.634 9.703 3.945 10.357 4.64v9.808c0 8.952-9.363 13.949-12 15.179v-30.179c0-0.276-0.224-0.5-0.5-0.5z"></path>
</symbol>
<symbol id="icon-lightbulb" viewBox="0 0 22 32">
<path d="M11 0c-5.29 0-11 4.206-11 11 0 3.353 1.334 6.174 3.896 8.312 0.027 0.034 0.058 0.063 0.092 0.088 1.901 2.062 1.997 2.454 2.010 3.361 0.006 0.359 0.003 0.465 0 0.523l-0.004 0.209c-0.015 0.452-0.038 1.209 0.899 1.495l8.094 1.781c0.036 0.008 0.072 0.012 0.107 0.012 0.23 0 0.437-0.159 0.488-0.393 0.060-0.27-0.111-0.537-0.381-0.596l-8.055-1.771c-0.155-0.047-0.168-0.051-0.154-0.498l0.003-0.191c0 0 0.010-0.078 0.002-0.586-0.019-1.269-0.295-1.882-2.309-4.059-0.039-0.048-0.086-0.088-0.138-0.118-2.356-2.003-3.55-4.549-3.55-7.569 0-6.177 5.19-10 10-10 4.916 0 10 3.741 10 10 0 3.978-1.928 6.171-3.518 7.551-0.055 0.026-0.104 0.063-0.147 0.109-2.037 2.204-2.313 2.817-2.332 4.086 0 0.030-0.001 0.065 0 0.103l-0.001 0.035c-0.003 0.076-0.014 0.118-0.013 0.134-0.034-0.005-0.117-0.018-0.117-0.018l-4.195-0.987c-0.272-0.062-0.538 0.104-0.601 0.372s0.103 0.538 0.372 0.602l4.144 0.972c0.055 0.020 0.553 0.182 0.973-0.113 0.183-0.129 0.396-0.382 0.434-0.866l0.003-0.047c0.001-0.032 0.002-0.065 0.002-0.099 0-0.009 0-0.018-0.001-0.026l0.001-0.046c0.013-0.902 0.107-1.294 2.005-3.356 0.009-0.007 0.019-0.014 0.027-0.022 2.667-2.241 3.964-4.984 3.964-8.384 0-6.885-5.593-11-11-11zM15 29.5c0.229 0 0.435-0.157 0.487-0.39 0.062-0.269-0.107-0.537-0.377-0.598l-8-1.814c-0.271-0.060-0.537 0.108-0.598 0.377-0.062 0.269 0.107 0.537 0.377 0.598l8 1.814c0.038 0.009 0.075 0.013 0.111 0.013zM7.609 29.554c-0.271-0.060-0.536 0.109-0.598 0.378-0.060 0.27 0.109 0.537 0.379 0.597l6.5 1.458c0.038 0.009 0.074 0.013 0.11 0.013 0.229 0 0.436-0.158 0.488-0.391 0.060-0.27-0.109-0.537-0.379-0.597l-6.5-1.458z"></path>
</symbol>
<symbol id="icon-hotairballoon" viewBox="0 0 28 32">
<path d="M28 9.401c0-6.326-4.579-9.401-14-9.401s-14 3.075-14 9.401c0 7.275 13.173 15.668 13.733 16.021 0.001 0.001 0.003 0 0.005 0.001 0.011 0.007 0.023 0.007 0.035 0.013 0.072 0.038 0.148 0.064 0.227 0.064s0.155-0.026 0.227-0.063c0.011-0.006 0.024-0.006 0.035-0.013 0.001-0.001 0.003 0 0.005-0.001 0.56-0.354 13.733-8.746 13.733-16.022zM18 9.401c0 5.56-2.876 12.121-4 14.473-1.124-2.351-4-8.909-4-14.473 0-7.53 2.283-8.401 4-8.401s4 0.871 4 8.401zM9 9.401c0 4.797 1.979 10.141 3.331 13.236-2.742-2.897-7.331-8.456-7.331-13.236 0-4.69 1.918-7.327 5.977-8.132-1.324 1.448-1.977 4.142-1.977 8.132zM19 9.401c0-3.99-0.652-6.684-1.977-8.132 4.059 0.805 5.977 3.443 5.977 8.132 0 4.78-4.589 10.338-7.331 13.236 1.352-3.094 3.331-8.439 3.331-13.236zM1 9.401c0-3.971 1.987-6.47 6.156-7.632-2.114 1.532-3.156 4.064-3.156 7.632 0 4.203 3.135 8.792 5.838 11.973-3.858-3.068-8.838-7.83-8.838-11.973zM18.162 21.374c2.703-3.181 5.838-7.769 5.838-11.973 0-3.568-1.042-6.101-3.156-7.632 4.169 1.162 6.156 3.661 6.156 7.632 0 4.143-4.98 8.905-8.838 11.973zM11.5 27c-0.276 0-0.5 0.224-0.5 0.5v3c0 0.841 0.659 1.5 1.5 1.5h3c0.841 0 1.5-0.659 1.5-1.5v-3c0-0.276-0.224-0.5-0.5-0.5h-5zM16 30.5c0 0.294-0.206 0.5-0.5 0.5h-3c-0.294 0-0.5-0.206-0.5-0.5v-2.5h4v2.5z"></path>
</symbol>
<symbol id="icon-globe" viewBox="0 0 25 32">
<path d="M13.552 22c5.79 0 10.5-4.71 10.5-10.5s-4.71-10.5-10.5-10.5-10.5 4.71-10.5 10.5 4.71 10.5 10.5 10.5zM13.552 2c5.238 0 9.5 4.262 9.5 9.5s-4.262 9.5-9.5 9.5-9.5-4.262-9.5-9.5 4.261-9.5 9.5-9.5zM9.052 28c-1.141 0-2 0.859-2 2v1.5c0 0.276 0.224 0.5 0.5 0.5h12c0.276 0 0.5-0.224 0.5-0.5v-1.425c0-1.164-0.879-2.075-2-2.075h-9zM19.052 30.075v0.925h-11v-1c0-0.589 0.411-1 1-1h9c0.57 0 1 0.462 1 1.075zM13.055 24.978c0 0.006-0.003 0.010-0.003 0.016v1.604c0 0.276 0.224 0.5 0.5 0.5s0.5-0.224 0.5-0.5v-1.604c0-0.007-0.004-0.013-0.004-0.020 3.233-0.129 6.268-1.376 8.638-3.581l1.18 1.179c0.195 0.195 0.512 0.195 0.707 0s0.195-0.512 0-0.707l-1.526-1.526c-0.195-0.195-0.512-0.195-0.707 0-2.362 2.361-5.501 3.661-8.84 3.661s-6.478-1.3-8.839-3.661-3.661-5.5-3.661-8.839 1.3-6.478 3.661-8.839c0.195-0.195 0.195-0.512 0-0.707l-1.526-1.526c-0.195-0.195-0.512-0.195-0.707 0s-0.195 0.512 0 0.707l1.179 1.18c-2.331 2.503-3.607 5.747-3.607 9.185 0 3.605 1.404 6.996 3.954 9.546 2.444 2.444 5.663 3.821 9.101 3.932z"></path>
</symbol>
<symbol id="icon-global" viewBox="0 0 32 32">
<path d="M0.034 16.668c0.354 8.511 7.369 15.332 15.966 15.332s15.612-6.821 15.966-15.332c0.019-0.053 0.034-0.108 0.034-0.168 0-0.036-0.013-0.067-0.020-0.1 0.003-0.134 0.020-0.265 0.020-0.4 0-8.822-7.178-16-16-16s-16 7.178-16 16c0 0.135 0.017 0.266 0.020 0.4-0.007 0.033-0.020 0.064-0.020 0.1 0 0.060 0.015 0.115 0.034 0.168zM24.921 22.742c-1.319-0.552-2.735-0.979-4.215-1.271 0.158-1.453 0.251-2.962 0.28-4.47h4.98c-0.091 2.054-0.456 3.993-1.045 5.741zM26.965 17h3.984c-0.186 2.806-1.138 5.403-2.663 7.579-0.759-0.533-1.577-1.019-2.457-1.44 0.645-1.869 1.042-3.943 1.136-6.139zM12.389 22.286c1.178-0.184 2.387-0.286 3.611-0.286s2.433 0.102 3.61 0.286c-0.694 5.335-2.21 8.714-3.61 8.714s-2.916-3.379-3.611-8.714zM13.908 30.664c-2.751-0.882-5.078-3.471-6.482-6.984 1.246-0.525 2.586-0.935 3.99-1.217 0.459 3.496 1.298 6.542 2.492 8.201zM12.274 10.709c1.217 0.188 2.465 0.291 3.726 0.291s2.509-0.103 3.726-0.291c0.172 1.62 0.274 3.388 0.274 5.291h-8c0-1.903 0.102-3.671 0.274-5.291zM19.985 17c-0.028 1.525-0.118 2.961-0.26 4.291-1.216-0.188-2.463-0.291-3.725-0.291s-2.509 0.103-3.726 0.291c-0.173-1.626-0.237-3.057-0.26-4.291h7.971zM20.585 22.463c1.404 0.282 2.743 0.692 3.99 1.217-1.404 3.513-3.731 6.102-6.482 6.984 1.193-1.659 2.032-4.705 2.492-8.201zM21 16c0-1.836-0.102-3.696-0.294-5.47 1.48-0.292 2.896-0.72 4.215-1.271 0.684 2.029 1.079 4.315 1.079 6.741h-5zM20.585 9.537c-0.46-3.496-1.298-6.543-2.493-8.201 2.751 0.882 5.078 3.471 6.482 6.984-1.246 0.525-2.585 0.936-3.989 1.217zM19.611 9.714c-1.178 0.184-2.387 0.286-3.611 0.286s-2.433-0.102-3.611-0.286c0.695-5.335 2.211-8.714 3.611-8.714s2.916 3.379 3.611 8.714zM11.415 9.537c-1.404-0.282-2.743-0.692-3.99-1.217 1.404-3.513 3.731-6.102 6.482-6.984-1.193 1.659-2.032 4.705-2.492 8.201zM11.294 10.53c-0.192 1.774-0.294 3.634-0.294 5.47h-5c0-2.426 0.395-4.712 1.079-6.742 1.319 0.552 2.735 0.979 4.215 1.272zM11.014 17c0.029 1.508 0.122 3.017 0.28 4.471-1.48 0.292-2.896 0.72-4.215 1.271-0.589-1.748-0.954-3.687-1.045-5.742h4.98zM6.17 23.139c-0.88 0.422-1.697 0.907-2.456 1.44-1.525-2.176-2.477-4.772-2.663-7.579h3.984c0.094 2.196 0.491 4.27 1.135 6.139zM4.313 25.38c0.685-0.479 1.417-0.922 2.207-1.305 1.004 2.485 2.449 4.548 4.186 5.943-2.526-0.958-4.729-2.568-6.393-4.638zM21.294 30.017c1.738-1.394 3.182-3.458 4.186-5.943 0.79 0.384 1.522 0.826 2.207 1.305-1.664 2.071-3.867 3.681-6.393 4.638zM27 16c0-2.567-0.428-4.987-1.17-7.139 0.88-0.422 1.698-0.907 2.457-1.44 1.704 2.434 2.713 5.389 2.713 8.579h-4zM27.688 6.62c-0.685 0.479-1.417 0.921-2.207 1.305-1.004-2.485-2.449-4.549-4.186-5.943 2.525 0.958 4.728 2.568 6.393 4.638zM10.706 1.983c-1.738 1.394-3.182 3.458-4.186 5.943-0.791-0.384-1.522-0.827-2.207-1.306 1.664-2.070 3.867-3.68 6.393-4.637zM3.714 7.421c0.758 0.533 1.576 1.018 2.456 1.44-0.742 2.152-1.17 4.572-1.17 7.139h-4c0-3.19 1.009-6.145 2.714-8.579z"></path>
</symbol>
<symbol id="icon-aperture" viewBox="0 0 32 32">
<path d="M16 32c8.822 0 16-7.178 16-16s-7.178-16-16-16-16 7.178-16 16 7.178 16 16 16zM7.71 3.51c-0.877 2.364-1.313 4.809-1.246 7.287 0.050 1.798 0.357 3.599 0.917 5.355 0.435 1.36 1.003 2.655 1.691 3.848 0.11 0.192 0.225 0.381 0.341 0.568 0.095 0.152 0.258 0.236 0.425 0.236 0.091 0 0.182-0.024 0.264-0.075 0.234-0.146 0.307-0.454 0.161-0.688-0.11-0.178-0.219-0.358-0.325-0.541-0.651-1.131-1.191-2.359-1.604-3.651-0.531-1.667-0.823-3.376-0.87-5.079-0.071-2.608 0.416-5.183 1.473-7.714 0.049-0.12 0.101-0.238 0.153-0.356 2.070-1.080 4.417-1.7 6.91-1.7 2.393 0 4.648 0.577 6.657 1.578-2.48 0.423-4.809 1.267-6.919 2.563-1.531 0.939-2.938 2.107-4.179 3.471-0.962 1.055-1.799 2.196-2.487 3.388-0.111 0.192-0.219 0.386-0.322 0.581-0.13 0.244-0.037 0.547 0.207 0.676 0.074 0.040 0.155 0.059 0.234 0.059 0.179 0 0.352-0.097 0.441-0.266 0.098-0.184 0.199-0.367 0.305-0.55 0.652-1.131 1.447-2.212 2.36-3.215 1.179-1.294 2.513-2.401 3.964-3.293 2.225-1.365 4.698-2.231 7.354-2.572 0.146-0.020 0.293-0.036 0.44-0.053 3.917 2.507 6.588 6.776 6.897 11.686-1.606-1.935-3.501-3.53-5.678-4.709-1.582-0.857-3.297-1.491-5.097-1.884-1.62-0.355-3.252-0.506-4.843-0.448-0.275 0.011-0.491 0.242-0.481 0.519 0.010 0.27 0.231 0.481 0.5 0.481 0.006 0 0.012 0 0.019 0 1.496-0.056 3.054 0.088 4.593 0.425 1.707 0.373 3.334 0.975 4.833 1.786 2.295 1.244 4.281 2.953 5.958 5.151 0.072 0.093 0.141 0.188 0.211 0.282-0.215 4.934-2.808 9.258-6.677 11.834 0.877-2.364 1.313-4.809 1.246-7.287-0.050-1.798-0.357-3.599-0.917-5.355-0.435-1.36-1.003-2.655-1.691-3.848-0.11-0.192-0.225-0.381-0.341-0.568-0.146-0.235-0.455-0.305-0.688-0.161-0.234 0.146-0.307 0.454-0.161 0.688 0.11 0.178 0.219 0.358 0.325 0.541 0.651 1.131 1.191 2.359 1.604 3.651 0.531 1.667 0.823 3.376 0.87 5.079 0.071 2.607-0.416 5.183-1.473 7.714-0.050 0.119-0.101 0.238-0.153 0.356-2.071 1.080-4.418 1.7-6.911 1.7-2.393 0-4.648-0.577-6.657-1.578 2.479-0.423 4.809-1.267 6.919-2.563 1.533-0.941 2.939-2.109 4.179-3.471 0.963-1.056 1.8-2.196 2.487-3.389 0.111-0.192 0.219-0.386 0.322-0.581 0.13-0.244 0.037-0.547-0.207-0.676-0.242-0.13-0.547-0.036-0.676 0.207-0.098 0.184-0.199 0.367-0.305 0.55-0.652 1.131-1.447 2.212-2.361 3.215-1.176 1.293-2.51 2.4-3.963 3.293-2.225 1.365-4.698 2.231-7.354 2.572-0.146 0.020-0.293 0.036-0.44 0.053-3.917-2.507-6.588-6.776-6.897-11.686 1.606 1.935 3.501 3.53 5.678 4.709 1.582 0.857 3.297 1.491 5.097 1.884 1.395 0.307 2.8 0.461 4.178 0.461 0.223 0 0.443-0.004 0.665-0.012 0.275-0.011 0.491-0.242 0.481-0.519-0.010-0.275-0.205-0.505-0.519-0.481-1.494 0.057-3.054-0.088-4.593-0.425-1.707-0.373-3.334-0.975-4.833-1.786-2.295-1.244-4.281-2.953-5.958-5.151-0.072-0.093-0.141-0.188-0.211-0.282 0.216-4.934 2.81-9.258 6.678-11.834z"></path>
</symbol>
<symbol id="icon-tumblr" viewBox="0 0 32 32">
<path d="M16-0.034c-8.842 0-16.034 7.192-16.034 16.034s7.192 16.034 16.034 16.034 16.034-7.192 16.034-16.034-7.192-16.034-16.034-16.034zM16 30.966c-8.252 0-14.966-6.714-14.966-14.966s6.714-14.966 14.966-14.966 14.966 6.714 14.966 14.966-6.714 14.966-14.966 14.966zM20.498 12h-3.498v-3.501c0.033-0.295-0.206-0.534-0.501-0.534h-2.579c-0.27 0-0.497 0.2-0.53 0.469-0.095 0.763-0.266 1.389-0.507 1.863-0.236 0.467-0.556 0.873-0.95 1.209-0.321 0.273-0.873 0.542-1.595 0.775-0.221 0.071-0.37 0.277-0.338 0.509v2.709c-0.032 0.295 0.207 0.534 0.502 0.501l1.498 1v4.668c-0.034-0.301 0.037-0.097 0.176 0.231l0.059 0.142c0.005 0.013 0.512 1.273 1.122 1.799 0.45 0.386 0.995 0.686 1.62 0.892 0.585 0.191 1.081 0.302 1.891 0.302 0.682 0 1.327-0.069 1.92-0.207 0.681-0.159 1.297-0.374 1.938-0.677 0.188-0.088 0.307-0.276 0.274-0.483v-2.405c0.032-0.196-0.075-0.377-0.248-0.471s-0.383-0.084-0.548 0.024c-0.705 0.463-1.083 0.546-1.796 0.546-0.332 0-0.62-0.068-0.881-0.211-0.105-0.191-0.257-0.778-0.315-1.009-0.052-0.199-0.096-0.362-0.126-0.443-0.055-0.146-0.055-0.668-0.054-1.272l0.001-2.426h3.465c0.295 0.033 0.534-0.206 0.502-0.501v-3c0.032-0.295-0.207-0.534-0.502-0.499zM19.964 15h-3.465c-0.295-0.035-0.534 0.204-0.499 0.499l-0.002 2.924c-0.036 0.853-0.036 1.322 0.087 1.65 0.023 0.061 0.053 0.184 0.092 0.334 0.254 0.989 0.414 1.434 0.743 1.627 0.438 0.262 0.938 0.395 1.488 0.395 0.573 0 1.033-0.050 1.556-0.269v1.16c-0.465 0.199-0.924 0.349-1.42 0.465-0.513 0.119-1.076 0.18-1.677 0.18-0.674 0-1.054-0.084-1.558-0.249-0.49-0.162-0.914-0.394-1.257-0.688-0.272-0.234-0.654-0.954-0.825-1.383l-0.066-0.161c-0.095-0.225-0.127-0.301-0.161-0.816v-5.169c0.034-0.295-0.205-0.534-0.5-0.534h-1.464v-1.794c0.688-0.251 1.221-0.537 1.589-0.852 0.504-0.428 0.911-0.945 1.211-1.538 0.243-0.479 0.426-1.064 0.545-1.748h1.584v3.466c0 0.295 0.239 0.534 0.534 0.501h3.465v2z"></path>
</symbol>
<symbol id="icon-linkedin" viewBox="0 0 32 32">
<path d="M19.515 11.952c-0.678 0-1.18 0.171-1.573 0.387-0.063-0.224-0.27-0.388-0.514-0.339h-2.984c-0.295-0.049-0.534 0.19-0.443 0.5v11c-0.091 0.28 0.148 0.52 0.443 0.5h2.984c0.295 0.020 0.534-0.22 0.534-0.515l-0.001-6.648c-0.001-0.003-0.012-0.321 0.189-0.54 0.161-0.174 0.438-0.263 0.821-0.263 0.638 0 0.922 0.261 1.028 0.845v6.606c-0.105 0.295 0.134 0.535 0.429 0.515h3.145c0.295 0.020 0.534-0.22 0.428-0.515v-6.828c0.105-3.472-2.368-4.705-4.486-4.705zM23.038 23h-2.076v-6.121c0-1.181-0.763-1.913-1.99-1.913-0.694 0-1.234 0.204-1.606 0.606-0.517 0.56-0.477 1.27-0.366 1.428v6h-2.022v-9.98h1.916v0.336c0 0.203 0.115 0.39 0.298 0.479s0.4 0.067 0.562-0.056l0.14-0.108c0.405-0.319 0.824-0.65 1.622-0.65 0.826 0 3.523 0.263 3.523 3.637v6.342zM11 6.966c-1.122 0-2.034 0.912-2.034 2.034s0.912 2.034 2.034 2.034 2.034-0.912 2.034-2.034-0.912-2.034-2.034-2.034zM11 9.966c-0.532 0-0.966-0.434-0.966-0.966s0.434-0.966 0.966-0.966 0.966 0.434 0.966 0.966-0.434 0.966-0.966 0.966zM12.428 11.951h-2.968c-0.295 0-0.534 0.239-0.46 0.549v11c-0.074 0.28 0.165 0.52 0.46 0.5h2.968c0.295 0.020 0.534-0.22 0.534-0.515v-11c0-0.295-0.239-0.534-0.534-0.534zM12 23h-2.006v-9.98h2.006v9.98zM16-0.034c-8.842 0-16.034 7.192-16.034 16.034s7.192 16.034 16.034 16.034 16.034-7.192 16.034-16.034-7.192-16.034-16.034-16.034zM16 30.966c-8.252 0-14.966-6.714-14.966-14.966s6.714-14.966 14.966-14.966 14.966 6.714 14.966 14.966-6.714 14.966-14.966 14.966z"></path>
</symbol>
<symbol id="icon-arrow-up" viewBox="0 0 24 24">
<path d="M5.707 12.707l5.293-5.293v11.586c0 0.552 0.448 1 1 1s1-0.448 1-1v-11.586l5.293 5.293c0.391 0.391 1.024 0.391 1.414 0s0.391-1.024 0-1.414l-7-7c-0.092-0.092-0.202-0.166-0.324-0.217s-0.253-0.076-0.383-0.076c-0.256 0-0.512 0.098-0.707 0.293l-7 7c-0.391 0.391-0.391 1.024 0 1.414s1.024 0.391 1.414 0z"></path>
</symbol>
<symbol id="icon-check" viewBox="0 0 24 24">
<path d="M19.293 5.293l-10.293 10.293-4.293-4.293c-0.391-0.391-1.024-0.391-1.414 0s-0.391 1.024 0 1.414l5 5c0.391 0.391 1.024 0.391 1.414 0l11-11c0.391-0.391 0.391-1.024 0-1.414s-1.024-0.391-1.414 0z"></path>
</symbol>
<symbol id="icon-chevron-up" viewBox="0 0 24 24">
<path d="M18.707 14.293l-6-6c-0.391-0.391-1.024-0.391-1.414 0l-6 6c-0.391 0.391-0.391 1.024 0 1.414s1.024 0.391 1.414 0l5.293-5.293 5.293 5.293c0.391 0.391 1.024 0.391 1.414 0s0.391-1.024 0-1.414z"></path>
</symbol>
<symbol id="icon-github" viewBox="0 0 24 24">
<path d="M8.713 18.042c-1.268 0.38-2.060 0.335-2.583 0.17-0.231-0.073-0.431-0.176-0.614-0.302-0.411-0.284-0.727-0.675-1.119-1.172-0.356-0.451-0.85-1.107-1.551-1.476-0.185-0.098-0.386-0.177-0.604-0.232-0.536-0.134-1.079 0.192-1.213 0.728s0.192 1.079 0.728 1.213c0.074 0.023 0.155 0.060 0.155 0.060 0.252 0.133 0.487 0.404 0.914 0.946 0.366 0.464 0.856 1.098 1.553 1.579 0.332 0.229 0.711 0.426 1.149 0.564 1.015 0.321 2.236 0.296 3.76-0.162 0.529-0.159 0.829-0.716 0.67-1.245s-0.716-0.829-1.245-0.67zM17 22v-3.792c0.052-0.684-0.056-1.343-0.292-1.942 0.777-0.171 1.563-0.427 2.297-0.823 2.083-1.124 3.496-3.242 3.496-6.923 0-1.503-0.516-2.887-1.379-3.981 0.355-1.345 0.226-2.726-0.293-3.933-0.122-0.283-0.359-0.482-0.634-0.564-0.357-0.106-1.732-0.309-4.373 1.362-2.273-0.541-4.557-0.509-6.646-0.002-2.639-1.669-4.013-1.466-4.37-1.36-0.296 0.088-0.521 0.3-0.635 0.565-0.554 1.292-0.624 2.672-0.292 3.932-0.93 1.178-1.387 2.601-1.379 4.017 0 3.622 1.389 5.723 3.441 6.859 0.752 0.416 1.56 0.685 2.357 0.867-0.185 0.468-0.286 0.961-0.304 1.456-0.005 0.141-0.003 0.283 0.005 0.424l0.001 3.838c0 0.552 0.448 1 1 1s1-0.448 1-1v-3.87c0-0.021-0.001-0.045-0.002-0.069-0.006-0.084-0.007-0.168-0.004-0.252 0.020-0.568 0.241-1.126 0.665-1.564 0.145-0.149 0.246-0.347 0.274-0.572 0.068-0.548-0.321-1.048-0.869-1.116-0.34-0.042-0.677-0.094-1.006-0.159-0.79-0.156-1.518-0.385-2.147-0.733-1.305-0.723-2.391-2.071-2.41-5.042 0.013-1.241 0.419-2.319 1.224-3.165 0.257-0.273 0.35-0.671 0.212-1.040-0.28-0.748-0.341-1.58-0.14-2.392 0.491 0.107 1.354 0.416 2.647 1.282 0.235 0.157 0.533 0.214 0.825 0.133 1.997-0.557 4.242-0.602 6.47 0.002 0.271 0.073 0.569 0.033 0.818-0.135 1.293-0.866 2.156-1.175 2.647-1.282 0.189 0.766 0.157 1.595-0.141 2.392-0.129 0.352-0.058 0.755 0.213 1.040 0.758 0.795 1.224 1.872 1.224 3.060 0 3.075-1.114 4.445-2.445 5.163-0.623 0.336-1.343 0.555-2.123 0.7-0.322 0.060-0.651 0.106-0.983 0.143-0.21 0.023-0.418 0.114-0.584 0.275-0.397 0.384-0.408 1.017-0.024 1.414 0.067 0.070 0.13 0.143 0.188 0.22 0.34 0.449 0.521 1.015 0.474 1.617 0 0.024-0.001 0.051-0.003 0.078v3.872c0 0.552 0.448 1 1 1s1-0.448 1-1z"></path>
</symbol>
<symbol id="icon-instagram" viewBox="0 0 24 24">
<path d="M7 1c-1.657 0-3.158 0.673-4.243 1.757s-1.757 2.586-1.757 4.243v10c0 1.657 0.673 3.158 1.757 4.243s2.586 1.757 4.243 1.757h10c1.657 0 3.158-0.673 4.243-1.757s1.757-2.586 1.757-4.243v-10c0-1.657-0.673-3.158-1.757-4.243s-2.586-1.757-4.243-1.757zM7 3h10c1.105 0 2.103 0.447 2.828 1.172s1.172 1.723 1.172 2.828v10c0 1.105-0.447 2.103-1.172 2.828s-1.723 1.172-2.828 1.172h-10c-1.105 0-2.103-0.447-2.828-1.172s-1.172-1.723-1.172-2.828v-10c0-1.105 0.447-2.103 1.172-2.828s1.723-1.172 2.828-1.172zM16.989 11.223c-0.15-0.972-0.571-1.857-1.194-2.567-0.754-0.861-1.804-1.465-3.009-1.644-0.464-0.074-0.97-0.077-1.477-0.002-1.366 0.202-2.521 0.941-3.282 1.967s-1.133 2.347-0.93 3.712 0.941 2.521 1.967 3.282 2.347 1.133 3.712 0.93 2.521-0.941 3.282-1.967 1.133-2.347 0.93-3.712zM15.011 11.517c0.122 0.82-0.1 1.609-0.558 2.227s-1.15 1.059-1.969 1.18-1.609-0.1-2.227-0.558-1.059-1.15-1.18-1.969 0.1-1.609 0.558-2.227 1.15-1.059 1.969-1.18c0.313-0.046 0.615-0.042 0.87-0.002 0.74 0.11 1.366 0.47 1.818 0.986 0.375 0.428 0.63 0.963 0.72 1.543zM17.5 7.5c0.552 0 1-0.448 1-1s-0.448-1-1-1-1 0.448-1 1 0.448 1 1 1z"></path>
</symbol>
<symbol id="icon-linkedin1" viewBox="0 0 24 24">
<path d="M16 7c-1.933 0-3.684 0.785-4.95 2.050s-2.050 3.017-2.050 4.95v7c0 0.552 0.448 1 1 1h4c0.552 0 1-0.448 1-1v-7c0-0.276 0.111-0.525 0.293-0.707s0.431-0.293 0.707-0.293 0.525 0.111 0.707 0.293 0.293 0.431 0.293 0.707v7c0 0.552 0.448 1 1 1h4c0.552 0 1-0.448 1-1v-7c0-1.933-0.785-3.684-2.050-4.95s-3.017-2.050-4.95-2.050zM16 9c1.381 0 2.63 0.559 3.536 1.464s1.464 2.155 1.464 3.536v6h-2v-6c0-0.828-0.337-1.58-0.879-2.121s-1.293-0.879-2.121-0.879-1.58 0.337-2.121 0.879-0.879 1.293-0.879 2.121v6h-2v-6c0-1.381 0.559-2.63 1.464-3.536s2.155-1.464 3.536-1.464zM2 8c-0.552 0-1 0.448-1 1v12c0 0.552 0.448 1 1 1h4c0.552 0 1-0.448 1-1v-12c0-0.552-0.448-1-1-1zM3 10h2v10h-2zM7 4c0-0.828-0.337-1.58-0.879-2.121s-1.293-0.879-2.121-0.879-1.58 0.337-2.121 0.879-0.879 1.293-0.879 2.121 0.337 1.58 0.879 2.121 1.293 0.879 2.121 0.879 1.58-0.337 2.121-0.879 0.879-1.293 0.879-2.121zM5 4c0 0.276-0.111 0.525-0.293 0.707s-0.431 0.293-0.707 0.293-0.525-0.111-0.707-0.293-0.293-0.431-0.293-0.707 0.111-0.525 0.293-0.707 0.431-0.293 0.707-0.293 0.525 0.111 0.707 0.293 0.293 0.431 0.293 0.707z"></path>
</symbol>
<symbol id="icon-mail" viewBox="0 0 24 24">
<path d="M3 7.921l8.427 5.899c0.34 0.235 0.795 0.246 1.147 0l8.426-5.899v10.079c0 0.272-0.11 0.521-0.295 0.705s-0.433 0.295-0.705 0.295h-16c-0.272 0-0.521-0.11-0.705-0.295s-0.295-0.433-0.295-0.705zM1 5.983c0 0.010 0 0.020 0 0.030v11.987c0 0.828 0.34 1.579 0.88 2.12s1.292 0.88 2.12 0.88h16c0.828 0 1.579-0.34 2.12-0.88s0.88-1.292 0.88-2.12v-11.988c0-0.010 0-0.020 0-0.030-0.005-0.821-0.343-1.565-0.88-2.102-0.541-0.54-1.292-0.88-2.12-0.88h-16c-0.828 0-1.579 0.34-2.12 0.88-0.537 0.537-0.875 1.281-0.88 2.103zM20.894 5.554l-8.894 6.225-8.894-6.225c0.048-0.096 0.112-0.183 0.188-0.259 0.185-0.185 0.434-0.295 0.706-0.295h16c0.272 0 0.521 0.11 0.705 0.295 0.076 0.076 0.14 0.164 0.188 0.259z"></path>
</symbol>
<symbol id="icon-phone" viewBox="0 0 24 24">
<path d="M23 16.92c0.016-0.714-0.236-1.404-0.673-1.943-0.46-0.566-1.129-0.967-1.925-1.080-0.8-0.098-1.695-0.314-2.586-0.646-0.433-0.159-0.893-0.218-1.344-0.174-0.663 0.064-1.307 0.349-1.819 0.855l-0.72 0.72c-1.77-1.117-3.36-2.667-4.583-4.589l0.726-0.726c0.322-0.33 0.563-0.726 0.707-1.156 0.212-0.632 0.214-1.336-0.039-2.011-0.289-0.753-0.518-1.644-0.644-2.595-0.104-0.714-0.456-1.345-0.963-1.804-0.539-0.486-1.256-0.779-2.027-0.771h-2.996c-0.088 0-0.182 0.004-0.273 0.012-0.824 0.075-1.542 0.478-2.033 1.066s-0.758 1.367-0.683 2.199c0.3 3.076 1.365 6.243 3.216 9.102 1.502 2.413 3.648 4.623 6.298 6.306 2.568 1.697 5.684 2.862 9.086 3.231 0.092 0.009 0.191 0.013 0.288 0.013 0.828-0.003 1.578-0.343 2.118-0.887s0.873-1.297 0.87-2.121zM21 16.92v3c0.001 0.28-0.109 0.53-0.29 0.712s-0.429 0.295-0.706 0.296c-3.149-0.336-5.961-1.391-8.263-2.912-2.428-1.543-4.359-3.537-5.702-5.694-1.697-2.62-2.655-5.481-2.924-8.238-0.024-0.268 0.064-0.526 0.229-0.724s0.403-0.33 0.678-0.355l3.088-0.005c0.271-0.003 0.507 0.094 0.687 0.256 0.17 0.154 0.288 0.366 0.323 0.608 0.142 1.072 0.408 2.117 0.757 3.025 0.081 0.216 0.080 0.447 0.010 0.658-0.049 0.145-0.131 0.281-0.242 0.395l-1.262 1.261c-0.324 0.324-0.379 0.814-0.162 1.201 1.584 2.785 3.839 4.957 6.381 6.378 0.397 0.222 0.882 0.144 1.195-0.166l1.27-1.27c0.166-0.164 0.377-0.257 0.598-0.279 0.152-0.015 0.31 0.005 0.459 0.060 1.022 0.381 2.070 0.636 3.034 0.754 0.241 0.034 0.462 0.166 0.615 0.355 0.147 0.181 0.231 0.412 0.226 0.682z"></path>
</symbol>
<symbol id="icon-slack" viewBox="0 0 24 24">
<path d="M14.5 11c0.69 0 1.316-0.28 1.768-0.732s0.732-1.078 0.732-1.768v-5c0-0.69-0.28-1.316-0.732-1.768s-1.078-0.732-1.768-0.732-1.316 0.28-1.768 0.732-0.732 1.078-0.732 1.768v5c0 0.69 0.28 1.316 0.732 1.768s1.078 0.732 1.768 0.732zM14.5 9c-0.14 0-0.264-0.055-0.354-0.146s-0.146-0.214-0.146-0.354v-5c0-0.14 0.055-0.264 0.146-0.354s0.214-0.146 0.354-0.146 0.264 0.055 0.354 0.146 0.146 0.214 0.146 0.354v5c0 0.14-0.055 0.264-0.146 0.354s-0.214 0.146-0.354 0.146zM20.5 11c0.69 0 1.316-0.28 1.768-0.732s0.732-1.078 0.732-1.768-0.28-1.316-0.732-1.768-1.078-0.732-1.768-0.732-1.316 0.28-1.768 0.732-0.732 1.078-0.732 1.768v1.5c0 0.552 0.448 1 1 1zM20.5 9h-0.5v-0.5c0-0.14 0.055-0.264 0.146-0.354s0.214-0.146 0.354-0.146 0.264 0.055 0.354 0.146 0.146 0.214 0.146 0.354-0.055 0.264-0.146 0.354-0.214 0.146-0.354 0.146zM9.5 13c-0.69 0-1.316 0.28-1.768 0.732s-0.732 1.078-0.732 1.768v5c0 0.69 0.28 1.316 0.732 1.768s1.078 0.732 1.768 0.732 1.316-0.28 1.768-0.732 0.732-1.078 0.732-1.768v-5c0-0.69-0.28-1.316-0.732-1.768s-1.078-0.732-1.768-0.732zM9.5 15c0.14 0 0.264 0.055 0.354 0.146s0.146 0.214 0.146 0.354v5c0 0.14-0.055 0.264-0.146 0.354s-0.214 0.146-0.354 0.146-0.264-0.055-0.354-0.146-0.146-0.214-0.146-0.354v-5c0-0.14 0.055-0.264 0.146-0.354s0.214-0.146 0.354-0.146zM3.5 13c-0.69 0-1.316 0.28-1.768 0.732s-0.732 1.078-0.732 1.768 0.28 1.316 0.732 1.768 1.078 0.732 1.768 0.732 1.316-0.28 1.768-0.732 0.732-1.078 0.732-1.768v-1.5c0-0.552-0.448-1-1-1zM3.5 15h0.5v0.5c0 0.14-0.055 0.264-0.146 0.354s-0.214 0.146-0.354 0.146-0.264-0.055-0.354-0.146-0.146-0.214-0.146-0.354 0.055-0.264 0.146-0.354 0.214-0.146 0.354-0.146zM13 14.5c0 0.69 0.28 1.316 0.732 1.768s1.078 0.732 1.768 0.732h5c0.69 0 1.316-0.28 1.768-0.732s0.732-1.078 0.732-1.768-0.28-1.316-0.732-1.768-1.078-0.732-1.768-0.732h-5c-0.69 0-1.316 0.28-1.768 0.732s-0.732 1.078-0.732 1.768zM15 14.5c0-0.14 0.055-0.264 0.146-0.354s0.214-0.146 0.354-0.146h5c0.14 0 0.264 0.055 0.354 0.146s0.146 0.214 0.146 0.354-0.055 0.264-0.146 0.354-0.214 0.146-0.354 0.146h-5c-0.14 0-0.264-0.055-0.354-0.146s-0.146-0.214-0.146-0.354zM15.5 20c0.14 0 0.264 0.055 0.354 0.146s0.146 0.214 0.146 0.354-0.055 0.264-0.146 0.354-0.214 0.146-0.354 0.146-0.264-0.055-0.354-0.146-0.146-0.214-0.146-0.354v-0.5zM15.5 18h-1.5c-0.552 0-1 0.448-1 1v1.5c0 0.69 0.28 1.316 0.732 1.768s1.078 0.732 1.768 0.732 1.316-0.28 1.768-0.732 0.732-1.078 0.732-1.768-0.28-1.316-0.732-1.768-1.078-0.732-1.768-0.732zM9 9.5c0 0.14-0.055 0.264-0.146 0.354s-0.214 0.146-0.354 0.146h-5c-0.14 0-0.264-0.055-0.354-0.146s-0.146-0.214-0.146-0.354 0.055-0.264 0.146-0.354 0.214-0.146 0.354-0.146h5c0.14 0 0.264 0.055 0.354 0.146s0.146 0.214 0.146 0.354zM11 9.5c0-0.69-0.28-1.316-0.732-1.768s-1.078-0.732-1.768-0.732h-5c-0.69 0-1.316 0.28-1.768 0.732s-0.732 1.078-0.732 1.768 0.28 1.316 0.732 1.768 1.078 0.732 1.768 0.732h5c0.69 0 1.316-0.28 1.768-0.732s0.732-1.078 0.732-1.768zM8.5 4c-0.14 0-0.264-0.055-0.354-0.146s-0.146-0.214-0.146-0.354 0.055-0.264 0.146-0.354 0.214-0.146 0.354-0.146 0.264 0.055 0.354 0.146 0.146 0.214 0.146 0.354v0.5zM8.5 6h1.5c0.552 0 1-0.448 1-1v-1.5c0-0.69-0.28-1.316-0.732-1.768s-1.078-0.732-1.768-0.732-1.316 0.28-1.768 0.732-0.732 1.078-0.732 1.768 0.28 1.316 0.732 1.768 1.078 0.732 1.768 0.732z"></path>
</symbol>
<symbol id="icon-sunrise" viewBox="0 0 24 24">
<path d="M18 18c0-1.657-0.673-3.158-1.757-4.243s-2.586-1.757-4.243-1.757-3.158 0.673-4.243 1.757-1.757 2.586-1.757 4.243c0 0.552 0.448 1 1 1s1-0.448 1-1c0-1.105 0.447-2.103 1.172-2.828s1.723-1.172 2.828-1.172 2.103 0.447 2.828 1.172 1.172 1.723 1.172 2.828c0 0.552 0.448 1 1 1s1-0.448 1-1zM3.513 10.927l1.42 1.42c0.391 0.391 1.024 0.391 1.414 0s0.391-1.024 0-1.414l-1.42-1.42c-0.391-0.391-1.024-0.391-1.414 0s-0.391 1.024 0 1.414zM1 19h2c0.552 0 1-0.448 1-1s-0.448-1-1-1h-2c-0.552 0-1 0.448-1 1s0.448 1 1 1zM21 19h2c0.552 0 1-0.448 1-1s-0.448-1-1-1h-2c-0.552 0-1 0.448-1 1s0.448 1 1 1zM19.067 12.347l1.42-1.42c0.391-0.391 0.391-1.024 0-1.414s-1.024-0.391-1.414 0l-1.42 1.42c-0.391 0.391-0.391 1.024 0 1.414s1.024 0.391 1.414 0zM23 21h-22c-0.552 0-1 0.448-1 1s0.448 1 1 1h22c0.552 0 1-0.448 1-1s-0.448-1-1-1zM8.707 6.707l2.293-2.293v4.586c0 0.552 0.448 1 1 1s1-0.448 1-1v-4.586l2.293 2.293c0.391 0.391 1.024 0.391 1.414 0s0.391-1.024 0-1.414l-4-4c-0.092-0.092-0.202-0.166-0.324-0.217-0.245-0.101-0.521-0.101-0.766 0-0.118 0.049-0.228 0.121-0.324 0.217l-4 4c-0.391 0.391-0.391 1.024 0 1.414s1.024 0.391 1.414 0z"></path>
</symbol>
<symbol id="icon-sunset" viewBox="0 0 24 24">
<path d="M18 18c0-1.657-0.673-3.158-1.757-4.243s-2.586-1.757-4.243-1.757-3.158 0.673-4.243 1.757-1.757 2.586-1.757 4.243c0 0.552 0.448 1 1 1s1-0.448 1-1c0-1.105 0.447-2.103 1.172-2.828s1.723-1.172 2.828-1.172 2.103 0.447 2.828 1.172 1.172 1.723 1.172 2.828c0 0.552 0.448 1 1 1s1-0.448 1-1zM3.513 10.927l1.42 1.42c0.391 0.391 1.024 0.391 1.414 0s0.391-1.024 0-1.414l-1.42-1.42c-0.391-0.391-1.024-0.391-1.414 0s-0.391 1.024 0 1.414zM1 19h2c0.552 0 1-0.448 1-1s-0.448-1-1-1h-2c-0.552 0-1 0.448-1 1s0.448 1 1 1zM21 19h2c0.552 0 1-0.448 1-1s-0.448-1-1-1h-2c-0.552 0-1 0.448-1 1s0.448 1 1 1zM19.067 12.347l1.42-1.42c0.391-0.391 0.391-1.024 0-1.414s-1.024-0.391-1.414 0l-1.42 1.42c-0.391 0.391-0.391 1.024 0 1.414s1.024 0.391 1.414 0zM23 21h-22c-0.552 0-1 0.448-1 1s0.448 1 1 1h22c0.552 0 1-0.448 1-1s-0.448-1-1-1zM15.293 4.293l-2.293 2.293v-4.586c0-0.552-0.448-1-1-1s-1 0.448-1 1v4.586l-2.293-2.293c-0.391-0.391-1.024-0.391-1.414 0s-0.391 1.024 0 1.414l4 4c0.096 0.096 0.206 0.168 0.324 0.217s0.247 0.076 0.383 0.076 0.265-0.027 0.383-0.076c0.118-0.049 0.228-0.121 0.324-0.217l4-4c0.391-0.391 0.391-1.024 0-1.414s-1.024-0.391-1.414 0z"></path>
</symbol>
<symbol id="icon-gmail" viewBox="0 0 32 32">
<path fill="#d14836" style="fill: var(--color1, #d14836)" d="M32 6v20c0 1.133-0.867 2-2 2h-2v-18.151l-12 8.617-12-8.617v18.151h-2c-1.135 0-2-0.867-2-2v-20c0-0.567 0.216-1.067 0.575-1.424 0.359-0.363 0.86-0.576 1.425-0.576h0.667l13.333 9.667 13.333-9.667h0.667c0.567 0 1.067 0.216 1.425 0.576 0.36 0.357 0.575 0.857 0.575 1.424z"></path>
</symbol>
<symbol id="icon-linkedin2" viewBox="0 0 32 32">
<path fill="#0077b5" style="fill: var(--color2, #0077b5)" d="M27.263 27.269h-4.739v-7.425c0-1.771-0.036-4.049-2.469-4.049-2.471 0-2.848 1.927-2.848 3.919v7.556h-4.739v-15.269h4.552v2.081h0.061c0.636-1.2 2.183-2.467 4.493-2.467 4.801 0 5.689 3.16 5.689 7.273zM7.116 9.911c-1.525 0-2.751-1.235-2.751-2.753 0-1.517 1.227-2.751 2.751-2.751 1.52 0 2.752 1.233 2.752 2.751 0 1.519-1.233 2.753-2.752 2.753zM9.492 27.269h-4.752v-15.269h4.752zM29.633 0h-27.272c-1.305 0-2.361 1.032-2.361 2.305v27.389c0 1.275 1.056 2.305 2.361 2.305h27.268c1.304 0 2.371-1.031 2.371-2.305v-27.389c0-1.273-1.067-2.305-2.371-2.305z"></path>
</symbol>
<symbol id="icon-tumblr1" viewBox="0 0 32 32">
<path fill="#36465d" style="fill: var(--color3, #36465d)" d="M19.417 32c-6.791 0-9.375-5.008-9.375-8.548v-10.456h-3.221v-4.132c4.84-1.751 6.016-6.128 6.28-8.625 0.019-0.171 0.153-0.239 0.231-0.239h4.689v8.152h6.401v4.844h-6.427v9.96c0.021 1.335 0.5 3.161 2.943 3.161h0.12c0.841-0.027 1.981-0.273 2.581-0.559l1.541 4.567c-0.581 0.848-3.2 1.832-5.541 1.872h-0.237z"></path>
</symbol>
<symbol id="icon-border-bottom" viewBox="0 0 20 20">
<path d="M1 1h2v2h-2v-2zM1 5h2v2h-2v-2zM1 9h2v2h-2v-2zM1 13h2v2h-2v-2zM1 17h18v2h-18v-2zM5 1h2v2h-2v-2zM5 9h2v2h-2v-2zM9 1h2v2h-2v-2zM9 5h2v2h-2v-2zM9 9h2v2h-2v-2zM9 13h2v2h-2v-2zM13 1h2v2h-2v-2zM13 9h2v2h-2v-2zM17 1h2v2h-2v-2zM17 5h2v2h-2v-2zM17 9h2v2h-2v-2zM17 13h2v2h-2v-2z"></path>
</symbol>
<symbol id="icon-border-inner" viewBox="0 0 20 20">
<path d="M9 9v-8h2v8h8v2h-8v8h-2v-8h-8v-2h8zM1 1h2v2h-2v-2zM1 5h2v2h-2v-2zM1 13h2v2h-2v-2zM1 17h2v2h-2v-2zM5 1h2v2h-2v-2zM5 17h2v2h-2v-2zM13 1h2v2h-2v-2zM13 17h2v2h-2v-2zM17 1h2v2h-2v-2zM17 5h2v2h-2v-2zM17 13h2v2h-2v-2zM17 17h2v2h-2v-2z"></path>
</symbol>
<symbol id="icon-border-left" viewBox="0 0 20 20">
<path d="M1 1h2v18h-2v-18zM5 1h2v2h-2v-2zM5 9h2v2h-2v-2zM5 17h2v2h-2v-2zM9 1h2v2h-2v-2zM9 5h2v2h-2v-2zM9 9h2v2h-2v-2zM9 13h2v2h-2v-2zM9 17h2v2h-2v-2zM13 1h2v2h-2v-2zM13 9h2v2h-2v-2zM13 17h2v2h-2v-2zM17 1h2v2h-2v-2zM17 5h2v2h-2v-2zM17 9h2v2h-2v-2zM17 13h2v2h-2v-2zM17 17h2v2h-2v-2z"></path>
</symbol>
<symbol id="icon-border-vertical" viewBox="0 0 20 20">
<path d="M1 1h2v2h-2v-2zM1 5h2v2h-2v-2zM1 9h2v2h-2v-2zM1 13h2v2h-2v-2zM1 17h2v2h-2v-2zM5 1h2v2h-2v-2zM5 9h2v2h-2v-2zM5 17h2v2h-2v-2zM9 1h2v18h-2v-18zM13 1h2v2h-2v-2zM13 9h2v2h-2v-2zM13 17h2v2h-2v-2zM17 1h2v2h-2v-2zM17 5h2v2h-2v-2zM17 9h2v2h-2v-2zM17 13h2v2h-2v-2zM17 17h2v2h-2v-2z"></path>
</symbol>
<symbol id="icon-brightness-down" viewBox="0 0 20 20">
<path d="M10 13c-1.657 0-3-1.343-3-3s1.343-3 3-3v0c1.657 0 3 1.343 3 3s-1.343 3-3 3v0zM9 4c0-0.552 0.448-1 1-1s1 0.448 1 1v0c0 0.552-0.448 1-1 1s-1-0.448-1-1v0zM13.54 5.050c0.184-0.215 0.456-0.35 0.76-0.35 0.552 0 1 0.448 1 1 0 0.303-0.135 0.575-0.348 0.758l-0.001 0.001c-0.184 0.215-0.456 0.35-0.76 0.35-0.552 0-1-0.448-1-1 0-0.303 0.135-0.575 0.348-0.758l0.001-0.001zM16 9c0.552 0 1 0.448 1 1s-0.448 1-1 1v0c-0.552 0-1-0.448-1-1s0.448-1 1-1v0zM14.95 13.54c0.215 0.184 0.35 0.456 0.35 0.76 0 0.552-0.448 1-1 1-0.303 0-0.575-0.135-0.758-0.348l-0.001-0.001c-0.215-0.184-0.35-0.456-0.35-0.76 0-0.552 0.448-1 1-1 0.303 0 0.575 0.135 0.758 0.348l0.001 0.001zM11 16c0 0.552-0.448 1-1 1s-1-0.448-1-1v0c0-0.552 0.448-1 1-1s1 0.448 1 1v0zM6.46 14.95c-0.184 0.215-0.456 0.35-0.76 0.35-0.552 0-1-0.448-1-1 0-0.303 0.135-0.575 0.348-0.758l0.001-0.001c0.184-0.215 0.456-0.35 0.76-0.35 0.552 0 1 0.448 1 1 0 0.303-0.135 0.575-0.348 0.758l-0.001 0.001zM4 11c-0.552 0-1-0.448-1-1s0.448-1 1-1v0c0.552 0 1 0.448 1 1s-0.448 1-1 1v0zM5.050 6.46c-0.215-0.184-0.35-0.456-0.35-0.76 0-0.552 0.448-1 1-1 0.303 0 0.575 0.135 0.758 0.348l0.001 0.001c0.215 0.184 0.35 0.456 0.35 0.76 0 0.552-0.448 1-1 1-0.303 0-0.575-0.135-0.758-0.348l-0.001-0.001z"></path>
</symbol>
<symbol id="icon-cheveron-down" viewBox="0 0 20 20">
<path d="M9.293 12.95l0.707 0.707 5.657-5.657-1.414-1.414-4.243 4.242-4.243-4.242-1.414 1.414z"></path>
</symbol>
<symbol id="icon-home" viewBox="0 0 20 20">
<path d="M8 20h-5v-10h-3l10-10 10 10h-3v10h-5v-6h-4v6z"></path>
</symbol>
<symbol id="icon-indent-decrease" viewBox="0 0 20 20">
<path d="M1 1h18v2h-18v-2zM7 9h12v2h-12v-2zM1 17h18v2h-18v-2zM7 5h12v2h-12v-2zM7 13h12v2h-12v-2zM5 6v8l-4-4 4-4z"></path>
</symbol>
<symbol id="icon-list-bullet" viewBox="0 0 20 20">
<path d="M1 4h2v2h-2v-2zM5 4h14v2h-14v-2zM1 9h2v2h-2v-2zM5 9h14v2h-14v-2zM1 14h2v2h-2v-2zM5 14h14v2h-14v-2z"></path>
</symbol>
<symbol id="icon-stroke-width" viewBox="0 0 20 20">
<path d="M0 0h20v5h-20v-5zM0 7h20v4h-20v-4zM0 13h20v3h-20v-3zM0 18h20v2h-20v-2z"></path>
</symbol>
<symbol id="icon-home1" viewBox="0 0 32 32">
<path d="M32 18.451l-16-12.42-16 12.42v-5.064l16-12.42 16 12.42zM28 18v12h-8v-8h-8v8h-8v-12l12-9z"></path>
</symbol>
<symbol id="icon-qrcode" viewBox="0 0 32 32">
<path d="M10 2h-8v8h8v-8zM12 0v0 12h-12v-12h12zM4 4h4v4h-4zM30 2h-8v8h8v-8zM32 0v0 12h-12v-12h12zM24 4h4v4h-4zM10 22h-8v8h8v-8zM12 20v0 12h-12v-12h12zM4 24h4v4h-4zM14 0h2v2h-2zM16 2h2v2h-2zM14 4h2v2h-2zM16 6h2v2h-2zM14 8h2v2h-2zM16 10h2v2h-2zM14 12h2v2h-2zM14 16h2v2h-2zM16 18h2v2h-2zM14 20h2v2h-2zM16 22h2v2h-2zM14 24h2v2h-2zM16 26h2v2h-2zM14 28h2v2h-2zM16 30h2v2h-2zM30 16h2v2h-2zM2 16h2v2h-2zM4 14h2v2h-2zM0 14h2v2h-2zM8 14h2v2h-2zM10 16h2v2h-2zM12 14h2v2h-2zM18 16h2v2h-2zM20 14h2v2h-2zM22 16h2v2h-2zM24 14h2v2h-2zM26 16h2v2h-2zM28 14h2v2h-2zM30 20h2v2h-2zM18 20h2v2h-2zM20 18h2v2h-2zM22 20h2v2h-2zM26 20h2v2h-2zM28 18h2v2h-2zM30 24h2v2h-2zM18 24h2v2h-2zM20 22h2v2h-2zM24 22h2v2h-2zM26 24h2v2h-2zM28 22h2v2h-2zM30 28h2v2h-2zM20 26h2v2h-2zM22 28h2v2h-2zM24 26h2v2h-2zM26 28h2v2h-2zM20 30h2v2h-2zM24 30h2v2h-2zM28 30h2v2h-2z"></path>
</symbol>
<symbol id="icon-shrink" viewBox="0 0 32 32">
<path d="M18 14h13l-5-5 6-6-3-3-6 6-5-5z"></path>
<path d="M18 18v13l5-5 6 6 3-3-6-6 5-5z"></path>
<path d="M14 18h-13l5 5-6 6 3 3 6-6 5 5z"></path>
<path d="M14 14v-13l-5 5-6-6-3 3 6 6-5 5z"></path>
</symbol>
<symbol id="icon-tumblr2" viewBox="0 0 32 32">
<path d="M29 0h-26c-1.65 0-3 1.35-3 3v26c0 1.65 1.35 3 3 3h26c1.65 0 3-1.35 3-3v-26c0-1.65-1.35-3-3-3zM22.869 25.769c-0.944 0.444-1.8 0.756-2.563 0.938-0.762 0.175-1.594 0.269-2.481 0.269-1.012 0-1.606-0.125-2.381-0.381s-1.438-0.619-1.988-1.087c-0.55-0.475-0.925-0.975-1.137-1.506s-0.319-1.3-0.319-2.313v-7.744h-3v-3.125c0.869-0.281 1.875-0.688 2.488-1.213 0.619-0.525 1.119-1.156 1.488-1.894 0.375-0.737 0.631-1.675 0.775-2.813h3.138v5.1h5.113v3.944h-5.106v5.662c0 1.281-0.019 2.019 0.119 2.381s0.475 0.738 0.844 0.95c0.488 0.294 1.050 0.438 1.675 0.438 1.119 0 2.231-0.363 3.337-1.087v3.481z"></path>
</symbol>
<symbol id="icon-linkedin3" viewBox="0 0 32 32">
<path d="M29 0h-26c-1.65 0-3 1.35-3 3v26c0 1.65 1.35 3 3 3h26c1.65 0 3-1.35 3-3v-26c0-1.65-1.35-3-3-3zM12 26h-4v-14h4v14zM10 10c-1.106 0-2-0.894-2-2s0.894-2 2-2c1.106 0 2 0.894 2 2s-0.894 2-2 2zM26 26h-4v-8c0-1.106-0.894-2-2-2s-2 0.894-2 2v8h-4v-14h4v2.481c0.825-1.131 2.087-2.481 3.5-2.481 2.488 0 4.5 2.238 4.5 5v9z"></path>
</symbol>
<symbol id="icon-linkedin21" viewBox="0 0 32 32">
<path d="M12 12h5.535v2.837h0.079c0.77-1.381 2.655-2.837 5.464-2.837 5.842 0 6.922 3.637 6.922 8.367v9.633h-5.769v-8.54c0-2.037-0.042-4.657-3.001-4.657-3.005 0-3.463 2.218-3.463 4.509v8.688h-5.767v-18z"></path>
<path d="M2 12h6v18h-6v-18z"></path>
<path d="M8 7c0 1.657-1.343 3-3 3s-3-1.343-3-3c0-1.657 1.343-3 3-3s3 1.343 3 3z"></path>
</symbol>
</defs>
</svg>
